<?xml version="1.0" encoding="utf-8"?>
<!-- Generator: Adobe Illustrator 25.0.0, SVG Export Plug-In . SVG Version: 6.00 Build 0)  -->
<svg version="1.1" id="icon" xmlns="http://www.w3.org/2000/svg" xmlns:xlink="http://www.w3.org/1999/xlink" x="0px" y="0px"
	 viewBox="0 0 32 32" style="enable-background:new 0 0 32 32;" xml:space="preserve">
<style type="text/css">
	.st0{fill:#FFFFFF;}
	.st1{fill:none;}
</style>
<polygon class="st0" points="30,24 26,24 26,20 24,20 24,24 20,24 20,26 24,26 24,30 26,30 26,26 30,26 "/>
<path class="st0" d="M16,28H8V4h8v6c0,1.1,0.9,2,2,2h6v4h2v-6c0-0.3-0.1-0.5-0.3-0.7l-7-7C18.5,2.1,18.3,2,18,2H8C6.9,2,6,2.9,6,4
	v24c0,1.1,0.9,2,2,2h8V28z M18,4.4l5.6,5.6H18V4.4z"/>
<rect id="_Transparent_Rectangle_" class="st1" width="32" height="32"/>
</svg>
