<?xml version="1.0" encoding="utf-8"?>
<!-- Generator: Adobe Illustrator 25.0.0, SVG Export Plug-In . SVG Version: 6.00 Build 0)  -->
<svg version="1.1" id="icon" xmlns="http://www.w3.org/2000/svg" xmlns:xlink="http://www.w3.org/1999/xlink" x="0px" y="0px"
	 viewBox="0 0 32 32" style="enable-background:new 0 0 32 32;" xml:space="preserve">
<style type="text/css">
	.st0{fill:#CFAE44;}
</style>
<g>
	<path class="st0" d="M14.7,19.3v-4.5c1.5-0.1,2.7-0.4,3.5-1.1s1.3-1.6,1.3-2.7v-0.4c0-0.9-0.3-1.7-0.9-2.2
		c-0.6-0.6-1.4-0.8-2.4-0.8c-1.1,0-1.9,0.3-2.5,0.9c-0.6,0.6-1.1,1.4-1.3,2.3l-2-0.8c0.2-0.6,0.4-1.1,0.7-1.7c0.3-0.5,0.7-1,1.2-1.4
		c0.5-0.4,1.1-0.7,1.7-1s1.4-0.4,2.3-0.4c1.7,0,3,0.5,4,1.4c1,0.9,1.5,2.2,1.5,3.8c0,0.9-0.2,1.6-0.5,2.3s-0.7,1.2-1.2,1.7
		s-1,0.8-1.6,1.1c-0.6,0.3-1.2,0.5-1.8,0.6v3H14.7z M15.8,25.3c-0.6,0-1-0.1-1.3-0.4s-0.4-0.7-0.4-1.1v-0.4c0-0.5,0.1-0.9,0.4-1.1
		c0.3-0.3,0.7-0.4,1.3-0.4c0.6,0,1,0.1,1.3,0.4c0.3,0.3,0.4,0.7,0.4,1.1v0.4c0,0.5-0.1,0.9-0.4,1.1C16.8,25.1,16.4,25.3,15.8,25.3z"
		/>
</g>
</svg>
