<?xml version="1.0" encoding="utf-8"?>
<!-- Generator: Adobe Illustrator 25.0.0, SVG Export Plug-In . SVG Version: 6.00 Build 0)  -->
<svg version="1.1" id="icon" xmlns="http://www.w3.org/2000/svg" xmlns:xlink="http://www.w3.org/1999/xlink" x="0px" y="0px"
	 viewBox="0 0 32 32" style="enable-background:new 0 0 32 32;" xml:space="preserve">
<style type="text/css">
	.st0{fill:#CFAE44;}
</style>
<path class="st0" d="M0,0v32h32V0H0z M17.4,23.7c0,0.5-0.1,0.9-0.4,1.1c-0.3,0.3-0.7,0.4-1.3,0.4c-0.6,0-1-0.1-1.3-0.4
	s-0.4-0.7-0.4-1.1v-0.4c0-0.5,0.1-0.9,0.4-1.1c0.3-0.3,0.7-0.4,1.3-0.4c0.6,0,1,0.1,1.3,0.4c0.3,0.3,0.4,0.7,0.4,1.1V23.7z M21.4,13
	c-0.3,0.6-0.7,1.2-1.2,1.7s-1,0.8-1.6,1.1c-0.6,0.3-1.2,0.5-1.8,0.6v3h-2.1v-4.5c1.5-0.1,2.7-0.4,3.5-1.1s1.3-1.6,1.3-2.7v-0.4
	c0-0.9-0.3-1.7-0.9-2.2c-0.6-0.6-1.4-0.8-2.4-0.8c-1.1,0-1.9,0.3-2.5,0.9c-0.6,0.6-1.1,1.4-1.3,2.3l-2-0.8c0.2-0.6,0.4-1.1,0.7-1.7
	c0.3-0.5,0.7-1,1.2-1.4c0.5-0.4,1.1-0.7,1.7-1s1.4-0.4,2.3-0.4c1.7,0,3,0.5,4,1.4c1,0.9,1.5,2.2,1.5,3.8
	C21.8,11.6,21.7,12.4,21.4,13z"/>
</svg>
