<?xml version="1.0" encoding="utf-8"?>
<!-- Generator: Adobe Illustrator 25.0.0, SVG Export Plug-In . SVG Version: 6.00 Build 0)  -->
<svg version="1.1" id="Layer_1" xmlns="http://www.w3.org/2000/svg" xmlns:xlink="http://www.w3.org/1999/xlink" x="0px" y="0px"
	 viewBox="0 0 24 28" style="enable-background:new 0 0 24 28;" xml:space="preserve">
<style type="text/css">
	.st0{fill:#FFFFFF;}
</style>
<path class="st0" d="M2,28h12c0.5,0,1-0.2,1.4-0.6C15.8,27,16,26.5,16,26v-3h-2v3H2V2h12v3h2V2c0-0.5-0.2-1-0.6-1.4
	C15,0.2,14.5,0,14,0H2C1.5,0,1,0.2,0.6,0.6S0,1.5,0,2v24c0,0.5,0.2,1,0.6,1.4C1,27.8,1.5,28,2,28z"/>
<path class="st0" d="M16.6,18.6l3.6-3.6H6v-2h14.2l-3.6-3.6L18,8l6,6l-6,6L16.6,18.6z"/>
</svg>
