<?xml version="1.0" encoding="UTF-8"?>
<svg width="21px" height="22px" viewBox="0 0 21 22" version="1.1" xmlns="http://www.w3.org/2000/svg" xmlns:xlink="http://www.w3.org/1999/xlink">
    <title>Actions / Formatting / spell-check / 24 Copy 4</title>
    <g id="Page-1" stroke="none" stroke-width="1" fill="none" fill-rule="evenodd">
        <g id="Actions-/-Formatting-/-spell-check-/-24-Copy-4" transform="translate(0.000000, 0.500000)" fill="#000000">
            <path d="M19.5,3 L12,3 L12,1.5 C12,0.671572875 11.3284271,0 10.5,0 L1.5,0 C0.671572875,0 0,0.671572875 0,1.5 L0,16.5 C0,17.3284271 0.671572875,18 1.5,18 L9,18 L9,19.5 C9,20.3284271 9.67157288,21 10.5,21 L19.5,21 C20.3284271,21 21,20.3284271 21,19.5 L21,4.5 C21,3.67157288 20.3284271,3 19.5,3 Z M1.5,9.75 L6.1275,9.75 L4.1925,11.6925 L5.25,12.75 L9,9 L5.25,5.25 L4.1925,6.3075 L6.1275,8.25 L1.5,8.25 L1.5,1.5 L10.5,1.5 L10.5,16.5 L1.5,16.5 L1.5,9.75 Z M10.5,19.5 L10.5,18 C11.3284271,18 12,17.3284271 12,16.5 L12,4.5 L19.5,4.5 L19.5,11.25 L14.8725,11.25 L16.8075,9.3075 L15.75,8.25 L12,12 L15.75,15.75 L16.8075,14.6925 L14.8725,12.75 L19.5,12.75 L19.5,19.5 L10.5,19.5 Z" id="Fill"></path>
        </g>
    </g>
</svg>