<?xml version="1.0" encoding="utf-8"?>
<!-- Generator: Adobe Illustrator 24.3.0, SVG Export Plug-In . SVG Version: 6.00 Build 0)  -->
<svg version="1.1" id="Layer_1" xmlns="http://www.w3.org/2000/svg" xmlns:xlink="http://www.w3.org/1999/xlink" x="0px" y="0px"
	 viewBox="0 0 32 32" style="enable-background:new 0 0 32 32;" xml:space="preserve">
<style type="text/css">
	.st0{fill-rule:evenodd;clip-rule:evenodd;fill:#a3d8e5;}
	.st1{fill:#FFFFFF;}
	.st2{clip-path:url(#SVGID_2_);fill:#FFFFFF;}
</style>
<g>
	<path class="st0" d="M15.9,31.8L15.9,31.8C7.2,31.8,0.1,24.7,0.1,16v0c0-8.7,7.1-15.8,15.8-15.8h0c8.7,0,15.8,7.1,15.8,15.8v0
		C31.7,24.7,24.7,31.8,15.9,31.8z"/>
	<path class="st1" d="M16.3,23.6h0.6c3.5,0,6.3-2.8,6.3-6.3V9.6H9.9v7.6C9.9,20.7,12.8,23.6,16.3,23.6z"/>
	<g>
		<defs>
			<path id="SVGID_1_" d="M15.9,31.8L15.9,31.8C7.2,31.8,0.1,24.7,0.1,16v0c0-8.7,7.1-15.8,15.8-15.8h0c8.7,0,15.8,7.1,15.8,15.8v0
				C31.7,24.7,24.7,31.8,15.9,31.8z"/>
		</defs>
		<clipPath id="SVGID_2_">
			<use xlink:href="#SVGID_1_"  style="overflow:visible;"/>
		</clipPath>
		<path class="st2" d="M17.5,17.8l-24.1-4.1v3.4l21.2,6.3c4.4,0.6,5.1-2.1,5.2-3.3l0.1-1C20.1,18,19.3,18,17.5,17.8z"/>
	</g>
</g>
</svg>
