<svg xmlns="http://www.w3.org/2000/svg" xmlns:xlink="http://www.w3.org/1999/xlink" viewBox="0 0 112.97 11.4"><defs><style>.cls-1{fill:none;}.cls-2{fill:#fff;}.cls-3{clip-path:url(#clip-path);}</style><clipPath id="clip-path" transform="translate(3.15 -7.13)"><rect class="cls-1" width="24" height="25.75" rx="12"/></clipPath></defs><g id="Layer_2" data-name="Layer 2"><g id="Layer_2-2" data-name="Layer 2"><path class="cls-2" d="M26.8,18.35V7.88h1.69v9h4.26v1.5Z" transform="translate(3.15 -7.13)"/><path class="cls-2" d="M40.1,18.35a1.28,1.28,0,0,1-1-.37,1.61,1.61,0,0,1-.42-.93h-.08a1.91,1.91,0,0,1-.82,1.11,2.71,2.71,0,0,1-1.46.37,2.55,2.55,0,0,1-1.86-.63,2.22,2.22,0,0,1-.66-1.69,2,2,0,0,1,.85-1.76,4.37,4.37,0,0,1,2.48-.58h1.41v-.66a1.5,1.5,0,0,0-.39-1.11A1.64,1.64,0,0,0,37,11.71a2,2,0,0,0-1.13.3,2.65,2.65,0,0,0-.73.76l-1-.88a3.19,3.19,0,0,1,1.1-1.09,3.55,3.55,0,0,1,1.84-.43,3.45,3.45,0,0,1,2.33.71,2.53,2.53,0,0,1,.81,2V17H41v1.33Zm-3.3-1.06A2.23,2.23,0,0,0,38.06,17a1.05,1.05,0,0,0,.49-.91V14.92H37.17c-1.13,0-1.69.35-1.69,1.05v.27a.91.91,0,0,0,.35.78A1.57,1.57,0,0,0,36.8,17.29Z" transform="translate(3.15 -7.13)"/><path class="cls-2" d="M42.62,7.25h1.63v4.59h.08a2.06,2.06,0,0,1,.83-1.08,2.33,2.33,0,0,1,1.35-.39,2.71,2.71,0,0,1,2.3,1.08,4.87,4.87,0,0,1,.81,3,4.92,4.92,0,0,1-.81,3,2.73,2.73,0,0,1-2.3,1.07,2.33,2.33,0,0,1-1.35-.39,2.14,2.14,0,0,1-.83-1.08h-.08v1.29H42.62ZM46,17.12a1.75,1.75,0,0,0,1.36-.55,2,2,0,0,0,.51-1.44V13.78a2.05,2.05,0,0,0-.51-1.45A1.78,1.78,0,0,0,46,11.78a2.13,2.13,0,0,0-1.26.37,1.15,1.15,0,0,0-.51,1v2.67a1.12,1.12,0,0,0,.51,1A2.07,2.07,0,0,0,46,17.12Z" transform="translate(3.15 -7.13)"/><path class="cls-2" d="M54.55,18.53a3.75,3.75,0,0,1-1.5-.28,3.16,3.16,0,0,1-1.12-.82,3.85,3.85,0,0,1-.72-1.29A5.61,5.61,0,0,1,51,14.45a5.5,5.5,0,0,1,.24-1.68,3.67,3.67,0,0,1,.72-1.29,3,3,0,0,1,1.12-.82,3.75,3.75,0,0,1,1.5-.29,3.6,3.6,0,0,1,1.51.3,3,3,0,0,1,1.08.84,3.64,3.64,0,0,1,.66,1.23A5.32,5.32,0,0,1,58,14.26v.61H52.66v.25a2.09,2.09,0,0,0,.53,1.47,2,2,0,0,0,1.53.58,2.2,2.2,0,0,0,1.21-.32,2.73,2.73,0,0,0,.84-.85l1,.95a3.06,3.06,0,0,1-1.26,1.15A4.06,4.06,0,0,1,54.55,18.53Zm0-6.88a1.92,1.92,0,0,0-.77.15,1.63,1.63,0,0,0-.6.42,1.79,1.79,0,0,0-.38.64,2.45,2.45,0,0,0-.14.83v.1h3.63v-.15a2.18,2.18,0,0,0-.46-1.44A1.58,1.58,0,0,0,54.55,11.65Z" transform="translate(3.15 -7.13)"/><path class="cls-2" d="M61.49,18.35a1.47,1.47,0,0,1-1.66-1.62V7.25h1.63V17h1.08v1.33Z" transform="translate(3.15 -7.13)"/><path class="cls-2" d="M70.89,18.53a4.81,4.81,0,0,1-2.24-.48,5,5,0,0,1-1.58-1.29l1.17-1.09a4,4,0,0,0,1.22,1A3.27,3.27,0,0,0,71,17a2.24,2.24,0,0,0,1.52-.45A1.53,1.53,0,0,0,73,15.37a1.33,1.33,0,0,0-.36-1,2.52,2.52,0,0,0-1.28-.54l-.93-.16a4.47,4.47,0,0,1-2.29-1,2.58,2.58,0,0,1-.76-2,2.86,2.86,0,0,1,.26-1.25,2.6,2.6,0,0,1,.73-.94,3.4,3.4,0,0,1,1.15-.6A5.06,5.06,0,0,1,71,7.7a4.7,4.7,0,0,1,2.06.42,4,4,0,0,1,1.48,1.19l-1.18,1A2.89,2.89,0,0,0,71,9.2a2.32,2.32,0,0,0-1.39.36,1.22,1.22,0,0,0-.5,1,1.2,1.2,0,0,0,.41,1,3,3,0,0,0,1.26.48l.93.2a4.36,4.36,0,0,1,2.3,1,2.64,2.64,0,0,1,.73,2,3.36,3.36,0,0,1-.26,1.33,2.92,2.92,0,0,1-.74,1,3.5,3.5,0,0,1-1.19.66A5.3,5.3,0,0,1,70.89,18.53Z" transform="translate(3.15 -7.13)"/><path class="cls-2" d="M78.27,18.35A1.63,1.63,0,0,1,77,17.92a1.61,1.61,0,0,1-.41-1.19V7.25h1.63V17h1.08v1.33Z" transform="translate(3.15 -7.13)"/><path class="cls-2" d="M83.94,18.53a3.75,3.75,0,0,1-1.5-.28,3.07,3.07,0,0,1-1.12-.82,3.69,3.69,0,0,1-.72-1.29,5.61,5.61,0,0,1-.24-1.69,5.5,5.5,0,0,1,.24-1.68,3.52,3.52,0,0,1,.72-1.29,3,3,0,0,1,1.12-.82,3.75,3.75,0,0,1,1.5-.29,3.6,3.6,0,0,1,1.51.3,3,3,0,0,1,1.08.84,3.64,3.64,0,0,1,.66,1.23,5.32,5.32,0,0,1,.21,1.52v.61H82.05v.25a2.09,2.09,0,0,0,.53,1.47,2,2,0,0,0,1.52.58,2.24,2.24,0,0,0,1.22-.32,2.73,2.73,0,0,0,.84-.85l1,.95a3.06,3.06,0,0,1-1.26,1.15A4.06,4.06,0,0,1,83.94,18.53Zm0-6.88a1.92,1.92,0,0,0-.77.15,1.63,1.63,0,0,0-.6.42,2,2,0,0,0-.39.64,2.45,2.45,0,0,0-.13.83v.1h3.63v-.15a2.13,2.13,0,0,0-.47-1.44A1.56,1.56,0,0,0,83.94,11.65Z" transform="translate(3.15 -7.13)"/><path class="cls-2" d="M93.94,17.06h-.06a2.66,2.66,0,0,1-.28.56,1.91,1.91,0,0,1-.43.47,2.33,2.33,0,0,1-.63.32,2.77,2.77,0,0,1-.85.12,2.33,2.33,0,0,1-1.88-.78,3.3,3.3,0,0,1-.67-2.23v-5h1.64v4.76c0,1.21.5,1.81,1.5,1.81a2.49,2.49,0,0,0,.61-.08,1.73,1.73,0,0,0,.53-.25,1.18,1.18,0,0,0,.52-1V10.55h1.63v7.8H93.94Z" transform="translate(3.15 -7.13)"/><path class="cls-2" d="M100.07,18.35a1.75,1.75,0,0,1-1.29-.44,1.71,1.71,0,0,1-.43-1.25V11.89H97.13V10.55h.66a.75.75,0,0,0,.57-.18.9.9,0,0,0,.15-.58V8.42H100v2.13h1.64v1.34H100V17h1.52v1.33Z" transform="translate(3.15 -7.13)"/><path class="cls-2" d="M103.39,7.25H105v4.59h.08a2.52,2.52,0,0,1,.77-1.05,2.17,2.17,0,0,1,1.42-.42,2.32,2.32,0,0,1,1.86.79,3.35,3.35,0,0,1,.67,2.24v5h-1.64V13.6c0-1.21-.49-1.82-1.47-1.82a2.21,2.21,0,0,0-.62.09,1.56,1.56,0,0,0-.54.24,1.31,1.31,0,0,0-.39.42,1.25,1.25,0,0,0-.14.59v5.23h-1.63Z" transform="translate(3.15 -7.13)"/><g class="cls-3"><path class="cls-2" d="M10.27,7.13v5.56L-3.15,10.44v2.75l17.23,5.09h.1a5.23,5.23,0,0,0,1.25.17h.48a5.16,5.16,0,0,0,5.16-5.16V7.13Z" transform="translate(3.15 -7.13)"/></g></g></g></svg>