<?xml version="1.0" encoding="utf-8"?>
<!-- Generator: Adobe Illustrator 25.0.0, SVG Export Plug-In . SVG Version: 6.00 Build 0)  -->
<svg version="1.1" id="icon" xmlns="http://www.w3.org/2000/svg" xmlns:xlink="http://www.w3.org/1999/xlink" x="0px" y="0px"
	 viewBox="0 0 32 32" style="enable-background:new 0 0 32 32;" xml:space="preserve">
<style type="text/css">
	.st0{fill:#FFFFFF;}
	.st1{fill:none;}
</style>
<path class="st0" d="M24,24v2h2.5c-1.1,1.3-2.8,2-4.5,2c-3.3,0-6-2.7-6-6h-2c0,4.4,3.6,8,8,8c2.3,0,4.5-1,6-2.7V30h2v-6H24z"/>
<path class="st0" d="M22,14c-2.3,0-4.5,1-6,2.7V14h-2v6h6v-2h-2.5c1.1-1.3,2.8-2,4.5-2c3.3,0,6,2.7,6,6h2C30,17.6,26.4,14,22,14z"/>
<path class="st0" d="M12,28H6v-4h2v-2H6v-5h2v-2H6v-5h2V8H6V4h18v8h2V4c0-1.1-0.9-2-2-2H6C4.9,2,4,2.9,4,4v4H2v2h2v5H2v2h2v5H2v2h2
	v4c0,1.1,0.9,2,2,2h6V28z"/>
<rect id="_Transparent_Rectangle_" class="st1" width="32" height="32"/>
</svg>
