<?xml version="1.0" encoding="UTF-8"?>
<svg width="21px" height="19px" viewBox="0 0 21 19" version="1.1" xmlns="http://www.w3.org/2000/svg" xmlns:xlink="http://www.w3.org/1999/xlink">
    <title>Actions / Formatting / spell-check / 24 Copy</title>
    <g id="Page-1" stroke="none" stroke-width="1" fill="none" fill-rule="evenodd">
        <g id="Actions-/-Formatting-/-spell-check-/-24-Copy" transform="translate(-1.500000, -2.166667)" fill="#000000">
            <path d="M15,4.5 L22.5,4.5 L22.5,6 L15,6 L15,4.5 Z M15,9 L20.25,9 L20.25,10.5 L15,10.5 L15,9 Z M15,13.5 L22.5,13.5 L22.5,15 L15,15 L15,13.5 Z M15,18 L20.25,18 L20.25,19.5 L15,19.5 L15,18 Z M10.5,3 L12,3 L12,21 L10.5,21 L10.5,3 Z M2.8875,16.875 L1.83,15.84 L6.5475,11.25 L1.83,6.66 L2.8875,5.625 L8.67,11.25 L2.8875,16.875 L2.8875,16.875 Z" id="Fill"></path>
        </g>
    </g>
</svg>