<?xml version="1.0" encoding="UTF-8"?>
<svg width="21px" height="19px" viewBox="0 0 21 19" version="1.1" xmlns="http://www.w3.org/2000/svg" xmlns:xlink="http://www.w3.org/1999/xlink">
    <title>Actions / Formatting / spell-check / 24 Copy 12</title>
    <g id="Page-1" stroke="none" stroke-width="1" fill="none" fill-rule="evenodd">
        <g id="Actions-/-Formatting-/-spell-check-/-24-Copy-12" transform="translate(-1.500000, -2.333333)" fill="#000000">
            <path d="M4.5,12 L9,12 L9,13.5 L4.5,13.5 L4.5,12 Z M4.5,9 L12,9 L12,10.5 L4.5,10.5 L4.5,9 Z M4.5,6 L12,6 L12,7.5 L4.5,7.5 L4.5,6 Z M10.5,19.5 L3,19.5 L3,4.5 L21,4.5 L21,12 L22.5,12 L22.5,4.5 C22.5,3.67157288 21.8284271,3 21,3 L3,3 C2.17157288,3 1.5,3.67157288 1.5,4.5 L1.5,19.5 C1.5,20.3284271 2.17157288,21 3,21 L10.5,21 L10.5,19.5 Z M16.5,19.1925 L14.5575,17.25 L13.5,18.3075 L16.5,21.3075 L22.5,15.3075 L21.4425,14.25 L16.5,19.1925 L16.5,19.1925 Z" id="Fill"></path>
        </g>
    </g>
</svg>