<?xml version="1.0" encoding="UTF-8"?>
<svg width="20px" height="22px" viewBox="0 0 20 22" version="1.1" xmlns="http://www.w3.org/2000/svg" xmlns:xlink="http://www.w3.org/1999/xlink">
    <title>Actions / Formatting / spell-check / 24 Copy 17</title>
    <g id="Page-1" stroke="none" stroke-width="1" fill="none" fill-rule="evenodd">
        <g id="Actions-/-Formatting-/-spell-check-/-24-Copy-17" transform="translate(-1.500000, -0.666667)" fill="#000000">
            <path d="M7.5,18 L9,18 L9,22.5 L7.5,22.5 L7.5,18 Z M15.75,15 L5.25,15 C4.00792475,14.998636 3.00136403,13.9920752 3,12.75 L3,4.5 L1.5,4.5 L1.5,12.75 C1.50243835,14.820057 3.17994303,16.4975616 5.25,16.5 L15.75,16.5 C16.296408,16.5024077 16.835525,16.6255978 17.32875,16.86075 L12.75,21.439425 L13.810575,22.5 L18.5409,17.769675 C19.1552906,18.4500336 19.4968318,19.333292 19.5,20.25 L19.5,22.5 L21,22.5 L21,20.25 C20.996776,17.3518415 18.6481585,15.003224 15.75,15 Z M18.95595,3.02895 L13.70595,1.52895 C13.5711455,1.49044629 13.4282545,1.49044629 13.29345,1.52895 L8.04345,3.02895 C7.65475961,3.14010187 7.4242691,3.53949487 7.5225,3.93165 L8.25,6.84225 L8.25,8.25 C8.24999997,10.1256444 9.25064431,11.8588112 10.875,12.7966334 C12.4993556,13.7344556 14.5006444,13.7344556 16.125,12.7966334 C17.7493557,11.8588112 18.75,10.1256444 18.75,8.25 L18.75,6.84225 L19.4775,3.93165 C19.575684,3.53931616 19.3448824,3.13984422 18.95595,3.02895 Z M13.5,3.03 L17.8464,4.27185 L17.41425,6 L14.25,6 L14.25,4.5 L12.75,4.5 L12.75,6 L9.58575,6 L9.1536,4.27185 L13.5,3.03 Z M13.5,12 C11.4299259,11.9976029 9.75239712,10.3200741 9.75,8.25 L9.75,7.5 L17.25,7.5 L17.25,8.25 C17.2476029,10.3200741 15.5700741,11.9976029 13.5,12 L13.5,12 Z" id="Fill"></path>
        </g>
    </g>
</svg>