<?xml version="1.0" encoding="UTF-8"?>
<svg width="21px" height="21px" viewBox="0 0 21 21" version="1.1" xmlns="http://www.w3.org/2000/svg" xmlns:xlink="http://www.w3.org/1999/xlink">
    <title>Actions / Formatting / spell-check / 24 Copy 14</title>
    <g id="Page-1" stroke="none" stroke-width="1" fill="none" fill-rule="evenodd">
        <g id="Actions-/-Formatting-/-spell-check-/-24-Copy-14" transform="translate(-1.500000, -1.500000)" fill="#000000">
            <path d="M4.5,6 L12,6 L12,7.5 L4.5,7.5 L4.5,6 Z M4.5,9 L10.5,9 L10.5,10.5 L4.5,10.5 L4.5,9 Z M4.5,12 L7.5,12 L7.5,13.5 L4.5,13.5 L4.5,12 Z M21,19.5 L5.560575,19.5 L22.5,2.560575 L21.439425,1.5 L19.939425,3 L3,3 C2.17196695,3.0009506 1.5009506,3.67196695 1.5,4.5 L1.5,16.5 L3,16.5 L3,4.5 L18.439425,4.5 L1.5,21.439425 L2.560575,22.5 L4.060575,21 L21,21 C21.8280331,20.9990494 22.4990494,20.3280331 22.5,19.5 L22.5,7.5 L21,7.5 L21,19.5 Z" id="Fill"></path>
        </g>
    </g>
</svg>